# vtk DataFile Version 3.0
MiniCCO-1
ASCII
DATASET POLYDATA
POINTS 94 float
0.000000 1.000000 0.0
0.000000 1.000000 0.0
0.194035 0.747987 0.0
0.247779 0.658240 0.0
0.274631 0.610523 0.0
0.301483 0.562806 0.0
0.361243 0.440416 0.0
0.434431 0.417951 0.0
0.434431 0.417951 0.0
0.497971 0.439192 0.0
0.417996 0.344433 0.0
0.425910 0.257920 0.0
0.456824 0.148168 0.0
0.511213 0.025655 0.0
0.501977 -0.174153 0.0
0.526492 -0.276536 0.0
0.322574 -0.572715 0.0
0.259493 -0.623991 0.0
0.298387 -0.794209 0.0
0.277383 -0.859554 0.0
0.273965 -0.878903 0.0
0.277383 -0.859554 0.0
0.368267 -0.916562 0.0
0.121776 -0.631942 0.0
-0.189489 -0.814508 0.0
-0.303446 -0.809076 0.0
-0.303446 -0.809076 0.0
-0.381658 -0.833448 0.0
-0.399396 -0.858943 0.0
-0.454634 -0.806269 0.0
-0.189489 -0.814508 0.0
0.090732 -0.603809 0.0
0.332255 -0.590930 0.0
0.663296 -0.467379 0.0
0.828913 -0.527390 0.0
0.650319 -0.688711 0.0
0.478805 -0.183325 0.0
0.606031 -0.010476 0.0
0.703976 -0.075754 0.0
0.787228 -0.046069 0.0
0.857201 -0.052616 0.0
0.861934 -0.048982 0.0
0.925230 -0.094882 0.0
0.846980 0.116977 0.0
0.761345 -0.200110 0.0
0.761345 -0.200110 0.0
0.843120 -0.214008 0.0
0.943907 -0.312113 0.0
0.859066 -0.204260 0.0
0.688345 0.069979 0.0
0.311244 0.029243 0.0
0.214455 -0.003226 0.0
0.169164 -0.074313 0.0
0.169164 -0.074313 0.0
0.049898 -0.239296 0.0
0.045137 -0.379254 0.0
0.045137 -0.379254 0.0
0.002533 -0.438215 0.0
0.049898 -0.239296 0.0
-0.097079 0.080355 0.0
0.310770 -0.055025 0.0
0.366029 0.259114 0.0
0.265664 0.184301 0.0
0.346171 0.273476 0.0
0.442061 0.340190 0.0
0.611011 0.649892 0.0
0.104831 0.460311 0.0
0.433332 0.722709 0.0
0.206336 0.754448 0.0
-0.026032 0.936216 0.0
-0.345978 0.649164 0.0
-0.404525 0.539849 0.0
-0.422811 0.429934 0.0
-0.518882 0.233058 0.0
-0.741393 0.084321 0.0
-0.894894 0.093722 0.0
-0.783227 -0.114420 0.0
-0.807306 -0.138951 0.0
-0.779595 -0.121128 0.0
-0.512864 0.158666 0.0
-0.512864 0.158666 0.0
-0.389508 -0.043245 0.0
-0.389508 -0.043245 0.0
-0.371838 -0.095099 0.0
-0.282876 -0.156774 0.0
-0.574165 -0.350263 0.0
-0.569262 -0.512680 0.0
-0.622364 -0.359172 0.0
-0.353008 0.373760 0.0
-0.469405 0.509140 0.0
-0.630543 0.552538 0.0
-0.469405 0.509140 0.0
-0.490280 0.690054 0.0
-0.026032 0.936216 0.0
LINES 93 279
2 0 1
2 1 2
2 2 3
2 3 4
2 4 5
2 5 6
2 6 7
2 7 8
2 7 9
2 6 10
2 10 11
2 11 12
2 12 13
2 13 14
2 14 15
2 15 16
2 16 17
2 17 18
2 18 19
2 19 20
2 19 21
2 18 22
2 17 23
2 23 24
2 24 25
2 25 26
2 25 27
2 27 28
2 27 29
2 24 30
2 23 31
2 16 32
2 15 33
2 33 34
2 33 35
2 14 36
2 13 37
2 37 38
2 38 39
2 39 40
2 40 41
2 40 42
2 39 43
2 38 44
2 44 45
2 44 46
2 46 47
2 46 48
2 37 49
2 12 50
2 50 51
2 51 52
2 52 53
2 52 54
2 54 55
2 55 56
2 55 57
2 54 58
2 51 59
2 50 60
2 11 61
2 61 62
2 61 63
2 10 64
2 5 65
2 4 66
2 3 67
2 2 68
2 1 69
2 69 70
2 70 71
2 71 72
2 72 73
2 73 74
2 74 75
2 74 76
2 76 77
2 76 78
2 73 79
2 79 80
2 79 81
2 81 82
2 81 83
2 83 84
2 83 85
2 85 86
2 85 87
2 72 88
2 71 89
2 89 90
2 89 91
2 70 92
2 69 93
